<svg width="85" height="83" viewBox="0 0 85 83" fill="none" xmlns="http://www.w3.org/2000/svg">
<path d="M62.626 30.8895V10.6811H27.0145V30.8897H62.626V30.8895ZM29.8107 13.4115H59.8298V28.1593H29.8107V13.4115Z" fill="#FFEEEE"/>
<path d="M56.8432 16.2948H32.7972V19.0252H56.8432V16.2948Z" fill="#FFEEEE"/>
<path d="M56.8432 21.7552H32.7972V24.4856H56.8432V21.7552Z" fill="#FFEEEE"/>
<path d="M72.9015 0H19.4287C15.3869 0 12.0986 3.21094 12.0986 7.15782C12.0986 7.15782 12.0991 67.6838 12.0991 67.6841C12.0991 71.6305 15.3871 74.841 19.4285 74.841H23.6998V83H34.1197V74.841H72.9004L72.9015 0ZM70.1053 60.5248H20.8268V2.73039H70.1053V60.5248ZM18.0306 2.94682V60.655C16.8856 60.8698 15.8155 61.3487 14.8948 62.0593V7.15782C14.8948 5.19285 16.2129 3.52367 18.0306 2.94682ZM19.4285 72.1106C16.9289 72.1106 14.8953 70.1249 14.8953 67.6841C14.8953 66.5 15.3668 65.3875 16.2229 64.5516C17.079 63.7158 18.2174 63.2554 19.4285 63.2554H23.6998V72.1106H19.4285ZM26.496 80.2696V63.2552H31.3235V80.2696H26.496ZM70.1044 72.1106H34.1199V63.2554H70.1044V72.1106Z" fill="#FFEEEE"/>
</svg>
