<svg width="76" height="67" viewBox="0 0 76 67" fill="none" xmlns="http://www.w3.org/2000/svg">
<path d="M74.0484 65.0615L65.2917 57.3418L73.6427 53.6613L50.9238 46.2822L59.2941 66.3118L63.4703 58.9486L72.2257 66.6673C72.4795 66.8887 72.808 67 73.1377 67C73.4675 67 73.7973 66.8887 74.0484 66.6673C74.5521 66.2232 74.5521 65.5055 74.0484 65.0615ZM55.2726 50.1149L67.1646 53.9781L62.1577 56.1846L59.6548 60.5998L55.2726 50.1149Z" fill="white"/>
<path d="M59.5402 23.8475H47.947H45.3707H36.3538H33.7775H24.7606H22.1843H10.5911V34.0678V36.339V44.2882V46.5593V56.7797H22.1843H24.7606H36.3538V46.5593H47.947V36.339H59.5402V23.8475ZM36.3538 26.1187H45.3707V34.0678H36.3538V26.1187ZM24.7606 26.1187H33.7775V34.0678H24.7606V26.1187ZM33.7775 44.2882H24.7606V36.339H33.7775V44.2882ZM13.1673 26.1187H22.1843V34.0678H13.1673V26.1187ZM13.1673 36.339H22.1843V44.2882H13.1673V36.339ZM22.1843 54.5085H13.1673V46.5593H22.1843V54.5085ZM33.7775 54.5085H24.7606V46.5593H33.7775V54.5085ZM45.3707 44.2882H36.3538V36.339H45.3707V44.2882ZM56.9639 34.0678H47.947V26.1187H56.9639V34.0678Z" fill="white"/>
<path d="M44.0826 62.4576H4.15037V18.1695H65.9809V40.8814C65.9809 41.5093 66.5567 42.0169 67.269 42.0169C67.9814 42.0169 68.5572 41.5093 68.5572 40.8814V17.0339V5.67797C68.5572 5.04998 67.9814 4.54237 67.269 4.54237H60.8283V1.13559C60.8283 0.50761 60.2525 0 59.5402 0H50.5233C49.8109 0 49.2351 0.50761 49.2351 1.13559V4.54237H20.8961V1.13559C20.8961 0.50761 20.3203 0 19.608 0H10.591C9.87871 0 9.30291 0.50761 9.30291 1.13559V4.54237H2.86223C2.14989 4.54237 1.5741 5.04998 1.5741 5.67797V17.0339V63.5932C1.5741 64.2212 2.14989 64.7288 2.86223 64.7288H44.0826C44.7949 64.7288 45.3707 64.2212 45.3707 63.5932C45.3707 62.9652 44.7936 62.4576 44.0826 62.4576ZM51.8114 2.27119H58.2521V5.67797V9.08475H51.8114V5.67797V2.27119ZM11.8792 2.27119H18.3199V5.67797V9.08475H11.8792V5.67797V2.27119ZM4.15037 6.81356H9.30291V10.2203C9.30291 10.8483 9.87871 11.3559 10.591 11.3559H19.608C20.3203 11.3559 20.8961 10.8483 20.8961 10.2203V6.81356H49.2351V10.2203C49.2351 10.8483 49.8109 11.3559 50.5233 11.3559H59.5402C60.2525 11.3559 60.8283 10.8483 60.8283 10.2203V6.81356H65.9809V15.8983H4.15037V6.81356Z" fill="white"/>
</svg>
