<svg width="184" height="187" viewBox="0 0 184 187" fill="none" xmlns="http://www.w3.org/2000/svg">
<ellipse cx="92" cy="93.5" rx="92" ry="93.5" fill="white"/>
<g clip-path="url(#clip0_127_902)">
<path d="M129.349 77.9688C128.348 77.1589 126.821 77.2467 125.938 78.1649C124.569 79.5884 122.612 80.4161 120.501 80.4161C118.39 80.4161 116.43 79.5872 115.061 78.1629C114.178 77.2448 112.651 77.157 111.65 77.9667C110.649 78.7767 110.553 80.1773 111.436 81.0954C113.714 83.4639 116.988 84.8492 120.501 84.8492C124.014 84.8492 127.286 83.4657 129.563 81.0974C130.446 80.1794 130.35 78.7785 129.349 77.9688Z" fill="#FF8D4E"/>
<path d="M71.5628 81.0974C72.4455 80.1794 72.3501 78.7785 71.349 77.9688C70.3481 77.1589 68.8208 77.2467 67.9381 78.1649C66.5691 79.5884 64.6121 80.4161 62.5006 80.4161C60.3913 80.4161 58.4338 79.5887 57.0645 78.1662C56.1809 77.2487 54.6539 77.1617 53.6533 77.9722C52.6528 78.7826 52.5582 80.1833 53.4415 81.1011C55.7193 83.4667 58.9908 84.8495 62.5006 84.8495C66.0134 84.8492 69.2853 83.4657 71.5628 81.0974Z" fill="#FF8D4E"/>
<path d="M91.5 25C51.4599 25 19 54.7736 19 91.5C19 128.226 51.4599 158 91.5 158C131.54 158 164 128.226 164 91.5C164 54.7736 131.54 25 91.5 25ZM91.5 153.567C54.1294 153.567 23.8334 125.778 23.8334 91.5C23.8334 57.2221 54.1294 29.4334 91.5 29.4334C128.871 29.4334 159.167 57.2221 159.167 91.5C159.167 125.778 128.871 153.567 91.5 153.567Z" fill="#FF8D4E"/>
<path d="M113.214 114.311C107.447 119.568 99.7936 122.534 91.5 122.534C83.2075 122.534 75.5568 119.568 69.7879 114.313C68.8409 113.45 67.3108 113.455 66.3703 114.324C65.4297 115.192 65.4348 116.596 66.3819 117.459C73.0456 123.529 81.9158 126.967 91.5 126.967C101.086 126.967 109.958 123.528 116.621 117.456C117.568 116.593 117.573 115.19 116.632 114.321C115.691 113.453 114.161 113.448 113.214 114.311Z" fill="#FF8D4E"/>
<path d="M54.911 60.1476C59.4924 57.6164 65.2697 57.617 69.8474 60.1492C70.9904 60.7814 72.4755 60.444 73.1649 59.3956C73.8542 58.3472 73.4863 56.9849 72.3433 56.3527C66.2309 52.9716 58.5329 52.9708 52.4168 56.3498C51.2735 56.9816 50.9051 58.3438 51.5936 59.3925C52.2826 60.4414 53.7677 60.7793 54.911 60.1476Z" fill="#FF8D4E"/>
<path d="M130.343 56.3529C124.231 52.9718 116.533 52.971 110.417 56.3501C109.274 56.9818 108.905 58.344 109.594 59.3927C110.282 60.4414 111.767 60.7793 112.911 60.1479C117.492 57.6167 123.269 57.6172 127.847 60.1494C128.99 60.7817 130.475 60.4442 131.165 59.3958C131.854 58.3474 131.486 56.9852 130.343 56.3529Z" fill="#FF8D4E"/>
</g>
<defs>
<clipPath id="clip0_127_902">
<rect width="145" height="133" fill="white" transform="translate(19 25)"/>
</clipPath>
</defs>
</svg>
