<svg width="184" height="187" viewBox="0 0 184 187" fill="none" xmlns="http://www.w3.org/2000/svg">
<ellipse cx="92" cy="93.5" rx="92" ry="93.5" fill="white"/>
<path d="M92 22.7812C53.1687 22.7812 21.6875 54.8921 21.6875 94.5C21.6875 134.108 53.1687 166.219 92 166.219C130.831 166.219 162.312 134.108 162.312 94.5C162.312 54.8921 130.831 22.7812 92 22.7812ZM92 160.242C56.4594 160.242 27.5469 130.751 27.5469 94.5C27.5469 58.2486 56.4594 28.7578 92 28.7578C127.541 28.7578 156.453 58.2486 156.453 94.5C156.453 130.751 127.541 160.242 92 160.242Z" fill="#FF8D4E"/>
<path d="M65.0469 93.5246C71.519 93.5246 76.7656 88.173 76.7656 81.5715C76.7656 74.97 71.519 69.6184 65.0469 69.6184C58.5748 69.6184 53.3281 74.97 53.3281 81.5715C53.3281 88.173 58.5748 93.5246 65.0469 93.5246Z" fill="#FF8D4E"/>
<path d="M118.953 93.5246C125.425 93.5246 130.672 88.173 130.672 81.5715C130.672 74.97 125.425 69.6184 118.953 69.6184C112.481 69.6184 107.234 74.97 107.234 81.5715C107.234 88.173 112.481 93.5246 118.953 93.5246Z" fill="#FF8D4E"/>
<path d="M92 113.133C81.3617 113.133 73.0578 120.443 68.9469 128.65C67.843 130.845 69.3078 133.223 70.9344 131.854C84.5117 120.376 99.5726 120.448 113.068 131.854C114.692 133.223 116.157 130.845 115.055 128.65C110.942 120.443 102.634 113.133 92 113.133Z" fill="#FF8D4E"/>
</svg>
