<svg width="184" height="187" viewBox="0 0 184 187" fill="none" xmlns="http://www.w3.org/2000/svg">
<ellipse cx="92" cy="93.5" rx="92" ry="93.5" fill="white"/>
<g clip-path="url(#clip0_127_900)">
<path d="M92 26C51.1964 26 18 56.5048 18 94C18 131.495 51.1964 162 92 162C132.804 162 166 131.495 166 94C166 56.5048 132.804 26 92 26ZM92 154.649C73.8713 154.649 57.428 147.896 45.4879 136.987C40.7198 132.63 36.6723 127.609 33.5207 122.091C28.7211 113.688 26.0001 104.131 26.0001 94C26.0001 60.5583 55.6075 33.3515 92 33.3515C109.262 33.3515 124.994 39.4752 136.767 49.4796C142.871 54.6661 147.912 60.8946 151.546 67.8564C155.681 75.7771 158 84.6444 158 94C158 127.442 128.392 154.649 92 154.649ZM64.0666 152.994C64.1866 153.042 64.3066 153.091 64.4276 153.139C64.3066 153.09 64.1866 153.042 64.0666 152.994Z" fill="#FF8D4E"/>
<path d="M67.2492 86.6485C71.6675 86.6485 75.2493 83.3572 75.2493 79.2971C75.2493 75.237 71.6675 71.9456 67.2492 71.9456C62.8309 71.9456 59.2491 75.237 59.2491 79.2971C59.2491 83.3572 62.8309 86.6485 67.2492 86.6485Z" fill="#FF8D4E"/>
<path d="M116.75 86.6485C121.168 86.6485 124.75 83.3572 124.75 79.2971C124.75 75.237 121.168 71.9456 116.75 71.9456C112.332 71.9456 108.75 75.237 108.75 79.2971C108.75 83.3572 112.332 86.6485 116.75 86.6485Z" fill="#FF8D4E"/>
<path d="M135.785 60.9345L110.449 50.8517L107.27 57.5974L132.605 67.6801L135.785 60.9345Z" fill="#FF8D4E"/>
<path d="M51.3917 67.6829L76.7266 57.6004L73.5473 50.8547L48.2125 60.9372L51.3917 67.6829Z" fill="#FF8D4E"/>
<path d="M125.125 119.172C125.739 120.172 126.304 121.211 126.806 122.261L134.131 119.304C133.522 118.031 132.836 116.771 132.093 115.56C123.582 101.69 106.889 93.257 89.5855 94.0832C72.3937 94.9005 56.8035 104.8 49.8674 119.304L57.1915 122.262C62.9221 110.279 75.7993 102.1 89.9985 101.425C104.292 100.744 118.092 107.71 125.125 119.172Z" fill="#FF8D4E"/>
</g>
<defs>
<clipPath id="clip0_127_900">
<rect width="148" height="136" fill="white" transform="translate(18 26)"/>
</clipPath>
</defs>
</svg>
