<svg width="184" height="187" viewBox="0 0 184 187" fill="none" xmlns="http://www.w3.org/2000/svg">
<ellipse cx="92" cy="93.5" rx="92" ry="93.5" fill="white"/>
<path d="M92.5 162C50.3883 162 16.25 130.66 16.25 92C16.25 53.3401 50.3883 22 92.5 22C134.612 22 168.75 53.3401 168.75 92C168.75 130.66 134.612 162 92.5 162ZM92.5 155C130.401 155 161.125 126.794 161.125 92C161.125 57.2061 130.401 29 92.5 29C54.5995 29 23.875 57.2061 23.875 92C23.875 126.794 54.5995 155 92.5 155ZM58.1875 113C56.0819 113 54.375 111.433 54.375 109.5C54.375 107.567 56.0819 106 58.1875 106H126.812C128.918 106 130.625 107.567 130.625 109.5C130.625 111.433 128.918 113 126.812 113H58.1875ZM69.625 85C65.4138 85 62 81.866 62 78C62 74.134 65.4138 71 69.625 71C73.8362 71 77.25 74.134 77.25 78C77.25 81.866 73.8362 85 69.625 85ZM115.375 85C111.164 85 107.75 81.866 107.75 78C107.75 74.134 111.164 71 115.375 71C119.586 71 123 74.134 123 78C123 81.866 119.586 85 115.375 85Z" fill="#FF8D4E"/>
</svg>
