<svg width="192" height="195" viewBox="0 0 192 195" fill="none" xmlns="http://www.w3.org/2000/svg">
<g filter="url(#filter0_d_127_903)">
<ellipse cx="96" cy="93.5" rx="92" ry="93.5" fill="white"/>
<g clip-path="url(#clip0_127_903)">
<path d="M96.5 24C58.1771 24 27 55.4014 27 94C27 132.599 58.1771 164 96.5 164C134.823 164 166 132.599 166 94C166 55.4014 134.823 24 96.5 24ZM96.5 157.636C61.6615 157.636 33.3182 129.089 33.3182 94C33.3182 58.9109 61.6615 30.3636 96.5 30.3636C131.338 30.3636 159.682 58.9109 159.682 94C159.682 129.089 131.338 157.636 96.5 157.636Z" fill="#FF8D4E"/>
<path d="M131.25 100.364C129.506 100.364 128.091 101.789 128.091 103.545C128.091 121.09 113.919 135.364 96.5 135.364C79.0807 135.364 64.9091 121.09 64.9091 103.545C64.9091 101.789 63.4938 100.364 61.75 100.364C60.0062 100.364 58.5909 101.789 58.5909 103.545C58.5909 124.6 75.5963 141.727 96.5 141.727C117.404 141.727 134.409 124.6 134.409 103.545C134.409 101.789 132.994 100.364 131.25 100.364Z" fill="#FF8D4E"/>
<path d="M68.0682 68.5455C73.2933 68.5455 77.5454 72.8282 77.5454 78.0909C77.5454 79.8473 78.9607 81.2727 80.7045 81.2727C82.4483 81.2727 83.8636 79.8473 83.8636 78.0909C83.8636 69.3186 76.7778 62.1818 68.0682 62.1818C59.3585 62.1818 52.2727 69.3186 52.2727 78.0909C52.2727 79.8473 53.688 81.2727 55.4318 81.2727C57.1756 81.2727 58.5909 79.8473 58.5909 78.0909C58.5909 72.8282 62.843 68.5455 68.0682 68.5455Z" fill="#FF8D4E"/>
<path d="M124.932 62.1818C116.222 62.1818 109.136 69.3186 109.136 78.0909C109.136 79.8473 110.552 81.2727 112.295 81.2727C114.039 81.2727 115.455 79.8473 115.455 78.0909C115.455 72.8282 119.707 68.5455 124.932 68.5455C130.157 68.5455 134.409 72.8282 134.409 78.0909C134.409 79.8473 135.824 81.2727 137.568 81.2727C139.312 81.2727 140.727 79.8473 140.727 78.0909C140.727 69.3186 133.641 62.1818 124.932 62.1818Z" fill="#FF8D4E"/>
</g>
</g>
<defs>
<filter id="filter0_d_127_903" x="0" y="0" width="192" height="195" filterUnits="userSpaceOnUse" color-interpolation-filters="sRGB">
<feFlood flood-opacity="0" result="BackgroundImageFix"/>
<feColorMatrix in="SourceAlpha" type="matrix" values="0 0 0 0 0 0 0 0 0 0 0 0 0 0 0 0 0 0 127 0" result="hardAlpha"/>
<feOffset dy="4"/>
<feGaussianBlur stdDeviation="2"/>
<feComposite in2="hardAlpha" operator="out"/>
<feColorMatrix type="matrix" values="0 0 0 0 0 0 0 0 0 0 0 0 0 0 0 0 0 0 0.25 0"/>
<feBlend mode="normal" in2="BackgroundImageFix" result="effect1_dropShadow_127_903"/>
<feBlend mode="normal" in="SourceGraphic" in2="effect1_dropShadow_127_903" result="shape"/>
</filter>
<clipPath id="clip0_127_903">
<rect width="139" height="140" fill="white" transform="translate(27 24)"/>
</clipPath>
</defs>
</svg>
